<mxfile host="app.diagrams.net" modified="2020-10-02T15:05:34.930Z" agent="5.0 (Windows)" etag="iQ1UobsLSP4GS4mYFAN-" version="13.7.3" type="github" pages="2">
  <diagram id="FKpOxl4j8zAN8j0LntPf" name="BasicDir">
    <mxGraphModel dx="1422" dy="831" grid="1" gridSize="10" guides="1" tooltips="1" connect="1" arrows="1" fold="1" page="1" pageScale="1" pageWidth="850" pageHeight="1100" math="0" shadow="0">
      <root>
        <mxCell id="0" />
        <mxCell id="1" parent="0" />
        <mxCell id="gzsq6Yt03Mv5ZVgsQ6RC-1" value="Data" style="pointerEvents=1;shadow=0;dashed=0;html=1;labelPosition=center;verticalLabelPosition=bottom;verticalAlign=top;outlineConnect=0;align=center;shape=mxgraph.office.concepts.folder;fillColor=#fff2cc;strokeColor=#d6b656;" vertex="1" parent="1">
          <mxGeometry x="70" y="180" width="150" height="120" as="geometry" />
        </mxCell>
        <mxCell id="gzsq6Yt03Mv5ZVgsQ6RC-2" value="GDB" style="shape=datastore;whiteSpace=wrap;html=1;" vertex="1" parent="1">
          <mxGeometry x="80" y="640" width="130" height="130" as="geometry" />
        </mxCell>
        <mxCell id="gzsq6Yt03Mv5ZVgsQ6RC-3" value="Data" style="pointerEvents=1;shadow=0;dashed=0;html=1;labelPosition=center;verticalLabelPosition=bottom;verticalAlign=top;outlineConnect=0;align=center;shape=mxgraph.office.concepts.folder;fillColor=#fff2cc;strokeColor=#d6b656;" vertex="1" parent="1">
          <mxGeometry x="70" y="180" width="150" height="120" as="geometry" />
        </mxCell>
        <mxCell id="gzsq6Yt03Mv5ZVgsQ6RC-4" value="Raw" style="pointerEvents=1;shadow=0;dashed=0;html=1;labelPosition=center;verticalLabelPosition=bottom;verticalAlign=top;outlineConnect=0;align=center;shape=mxgraph.office.concepts.folder;fillColor=#fff2cc;strokeColor=#d6b656;" vertex="1" parent="1">
          <mxGeometry x="320" y="260" width="87.5" height="70" as="geometry" />
        </mxCell>
        <mxCell id="gzsq6Yt03Mv5ZVgsQ6RC-6" value="Cleaned" style="pointerEvents=1;shadow=0;dashed=0;html=1;labelPosition=center;verticalLabelPosition=bottom;verticalAlign=top;outlineConnect=0;align=center;shape=mxgraph.office.concepts.folder;fillColor=#fff2cc;strokeColor=#d6b656;" vertex="1" parent="1">
          <mxGeometry x="320" y="490" width="87.5" height="70" as="geometry" />
        </mxCell>
        <mxCell id="gzsq6Yt03Mv5ZVgsQ6RC-7" value="" style="edgeStyle=orthogonalEdgeStyle;endArrow=none;html=1;endFill=0;" edge="1" parent="1" source="gzsq6Yt03Mv5ZVgsQ6RC-3" target="gzsq6Yt03Mv5ZVgsQ6RC-4">
          <mxGeometry width="50" height="50" relative="1" as="geometry">
            <mxPoint x="300" y="490" as="sourcePoint" />
            <mxPoint x="410" y="470" as="targetPoint" />
          </mxGeometry>
        </mxCell>
        <mxCell id="gzsq6Yt03Mv5ZVgsQ6RC-8" value="" style="edgeStyle=orthogonalEdgeStyle;endArrow=none;html=1;rounded=1;endFill=0;" edge="1" parent="1" source="gzsq6Yt03Mv5ZVgsQ6RC-3" target="gzsq6Yt03Mv5ZVgsQ6RC-6">
          <mxGeometry width="50" height="50" relative="1" as="geometry">
            <mxPoint x="220" y="240" as="sourcePoint" />
            <mxPoint x="320" y="295" as="targetPoint" />
            <Array as="points">
              <mxPoint x="270" y="240" />
              <mxPoint x="270" y="535" />
            </Array>
          </mxGeometry>
        </mxCell>
        <mxCell id="gzsq6Yt03Mv5ZVgsQ6RC-9" value="Scripts" style="pointerEvents=1;shadow=0;dashed=0;html=1;labelPosition=center;verticalLabelPosition=bottom;verticalAlign=top;outlineConnect=0;align=center;shape=mxgraph.office.concepts.folder;fillColor=#fff2cc;strokeColor=#d6b656;" vertex="1" parent="1">
          <mxGeometry x="630" y="170" width="150" height="120" as="geometry" />
        </mxCell>
        <mxCell id="gzsq6Yt03Mv5ZVgsQ6RC-10" value="" style="edgeStyle=orthogonalEdgeStyle;endArrow=classic;html=1;dashed=1;" edge="1" parent="1" source="gzsq6Yt03Mv5ZVgsQ6RC-13" target="gzsq6Yt03Mv5ZVgsQ6RC-4">
          <mxGeometry width="50" height="50" relative="1" as="geometry">
            <mxPoint x="220" y="240" as="sourcePoint" />
            <mxPoint x="490" y="240" as="targetPoint" />
          </mxGeometry>
        </mxCell>
        <mxCell id="gzsq6Yt03Mv5ZVgsQ6RC-15" value="" style="group" vertex="1" connectable="0" parent="1">
          <mxGeometry x="510" y="240" width="80" height="75" as="geometry" />
        </mxCell>
        <mxCell id="gzsq6Yt03Mv5ZVgsQ6RC-13" value="" style="shape=mxgraph.bpmn.script_task;html=1;outlineConnect=0;" vertex="1" parent="gzsq6Yt03Mv5ZVgsQ6RC-15">
          <mxGeometry x="20" width="40" height="40" as="geometry" />
        </mxCell>
        <mxCell id="gzsq6Yt03Mv5ZVgsQ6RC-14" value="Downloaders" style="text;html=1;strokeColor=none;fillColor=none;align=center;verticalAlign=middle;whiteSpace=wrap;rounded=0;" vertex="1" parent="gzsq6Yt03Mv5ZVgsQ6RC-15">
          <mxGeometry y="55" width="80" height="20" as="geometry" />
        </mxCell>
        <mxCell id="gzsq6Yt03Mv5ZVgsQ6RC-16" value="Reference" style="pointerEvents=1;shadow=0;dashed=0;html=1;labelPosition=center;verticalLabelPosition=bottom;verticalAlign=top;outlineConnect=0;align=center;shape=mxgraph.office.concepts.folder;fillColor=#fff2cc;strokeColor=#d6b656;" vertex="1" parent="1">
          <mxGeometry x="320" y="375" width="87.5" height="70" as="geometry" />
        </mxCell>
        <mxCell id="gzsq6Yt03Mv5ZVgsQ6RC-17" value="" style="edgeStyle=orthogonalEdgeStyle;endArrow=none;html=1;rounded=1;endFill=0;" edge="1" parent="1" source="gzsq6Yt03Mv5ZVgsQ6RC-3" target="gzsq6Yt03Mv5ZVgsQ6RC-16">
          <mxGeometry width="50" height="50" relative="1" as="geometry">
            <mxPoint x="220" y="240" as="sourcePoint" />
            <mxPoint x="320" y="415" as="targetPoint" />
            <Array as="points">
              <mxPoint x="270" y="240" />
              <mxPoint x="270" y="420" />
            </Array>
          </mxGeometry>
        </mxCell>
        <mxCell id="gzsq6Yt03Mv5ZVgsQ6RC-18" value="" style="group" vertex="1" connectable="0" parent="1">
          <mxGeometry x="510" y="410" width="80" height="75" as="geometry" />
        </mxCell>
        <mxCell id="gzsq6Yt03Mv5ZVgsQ6RC-19" value="" style="shape=mxgraph.bpmn.script_task;html=1;outlineConnect=0;" vertex="1" parent="gzsq6Yt03Mv5ZVgsQ6RC-18">
          <mxGeometry x="20" width="40" height="40" as="geometry" />
        </mxCell>
        <mxCell id="gzsq6Yt03Mv5ZVgsQ6RC-20" value="Data prep" style="text;html=1;strokeColor=none;fillColor=none;align=center;verticalAlign=middle;whiteSpace=wrap;rounded=0;" vertex="1" parent="gzsq6Yt03Mv5ZVgsQ6RC-18">
          <mxGeometry y="55" width="80" height="20" as="geometry" />
        </mxCell>
        <mxCell id="gzsq6Yt03Mv5ZVgsQ6RC-21" value="" style="edgeStyle=orthogonalEdgeStyle;endArrow=classic;html=1;dashed=1;" edge="1" parent="1" source="gzsq6Yt03Mv5ZVgsQ6RC-19" target="gzsq6Yt03Mv5ZVgsQ6RC-6">
          <mxGeometry width="50" height="50" relative="1" as="geometry">
            <mxPoint x="530" y="260" as="sourcePoint" />
            <mxPoint x="490" y="520" as="targetPoint" />
            <Array as="points">
              <mxPoint x="550" y="525" />
            </Array>
          </mxGeometry>
        </mxCell>
        <mxCell id="gzsq6Yt03Mv5ZVgsQ6RC-22" value="" style="ellipse;shape=cloud;whiteSpace=wrap;html=1;" vertex="1" parent="1">
          <mxGeometry x="380" y="30" width="120" height="80" as="geometry" />
        </mxCell>
        <mxCell id="gzsq6Yt03Mv5ZVgsQ6RC-23" value="" style="edgeStyle=orthogonalEdgeStyle;endArrow=block;html=1;dashed=1;strokeColor=#0000FF;strokeWidth=2;endFill=0;" edge="1" parent="1" source="gzsq6Yt03Mv5ZVgsQ6RC-22" target="gzsq6Yt03Mv5ZVgsQ6RC-13">
          <mxGeometry width="50" height="50" relative="1" as="geometry">
            <mxPoint x="500" y="140" as="sourcePoint" />
            <mxPoint x="407.5" y="295" as="targetPoint" />
          </mxGeometry>
        </mxCell>
        <mxCell id="gzsq6Yt03Mv5ZVgsQ6RC-24" value="User" style="outlineConnect=0;fontColor=#232F3E;gradientColor=none;strokeColor=#232F3E;fillColor=#ffffff;dashed=0;verticalLabelPosition=bottom;verticalAlign=top;align=center;html=1;fontSize=12;fontStyle=0;aspect=fixed;shape=mxgraph.aws4.resourceIcon;resIcon=mxgraph.aws4.user;" vertex="1" parent="1">
          <mxGeometry x="310" y="130" width="60" height="60" as="geometry" />
        </mxCell>
        <mxCell id="gzsq6Yt03Mv5ZVgsQ6RC-25" value="" style="edgeStyle=orthogonalEdgeStyle;endArrow=classic;html=1;dashed=1;" edge="1" parent="1" source="gzsq6Yt03Mv5ZVgsQ6RC-22" target="gzsq6Yt03Mv5ZVgsQ6RC-24">
          <mxGeometry width="50" height="50" relative="1" as="geometry">
            <mxPoint x="380" y="140" as="sourcePoint" />
            <mxPoint x="550" y="240" as="targetPoint" />
          </mxGeometry>
        </mxCell>
        <mxCell id="gzsq6Yt03Mv5ZVgsQ6RC-26" value="" style="edgeStyle=orthogonalEdgeStyle;endArrow=classic;html=1;dashed=1;" edge="1" parent="1" source="gzsq6Yt03Mv5ZVgsQ6RC-24" target="gzsq6Yt03Mv5ZVgsQ6RC-4">
          <mxGeometry width="50" height="50" relative="1" as="geometry">
            <mxPoint x="380" y="70" as="sourcePoint" />
            <mxPoint x="340" y="130" as="targetPoint" />
            <Array as="points">
              <mxPoint x="290" y="160" />
              <mxPoint x="290" y="225" />
              <mxPoint x="364" y="225" />
            </Array>
          </mxGeometry>
        </mxCell>
        <mxCell id="gzsq6Yt03Mv5ZVgsQ6RC-27" value="" style="edgeStyle=orthogonalEdgeStyle;endArrow=none;html=1;endFill=0;" edge="1" parent="1" source="gzsq6Yt03Mv5ZVgsQ6RC-9" target="gzsq6Yt03Mv5ZVgsQ6RC-13">
          <mxGeometry width="50" height="50" relative="1" as="geometry">
            <mxPoint x="220" y="240" as="sourcePoint" />
            <mxPoint x="320" y="295" as="targetPoint" />
          </mxGeometry>
        </mxCell>
        <mxCell id="gzsq6Yt03Mv5ZVgsQ6RC-28" value="" style="edgeStyle=orthogonalEdgeStyle;endArrow=none;html=1;endFill=0;" edge="1" parent="1" source="gzsq6Yt03Mv5ZVgsQ6RC-9" target="gzsq6Yt03Mv5ZVgsQ6RC-19">
          <mxGeometry width="50" height="50" relative="1" as="geometry">
            <mxPoint x="610" y="230" as="sourcePoint" />
            <mxPoint x="570" y="260" as="targetPoint" />
            <Array as="points">
              <mxPoint x="600" y="230" />
              <mxPoint x="600" y="370" />
            </Array>
          </mxGeometry>
        </mxCell>
        <mxCell id="gzsq6Yt03Mv5ZVgsQ6RC-29" value="" style="edgeStyle=orthogonalEdgeStyle;endArrow=classic;html=1;dashed=1;" edge="1" parent="1" source="gzsq6Yt03Mv5ZVgsQ6RC-24" target="gzsq6Yt03Mv5ZVgsQ6RC-16">
          <mxGeometry width="50" height="50" relative="1" as="geometry">
            <mxPoint x="310" y="160" as="sourcePoint" />
            <mxPoint x="364" y="260" as="targetPoint" />
            <Array as="points">
              <mxPoint x="290" y="160" />
              <mxPoint x="290" y="410" />
            </Array>
          </mxGeometry>
        </mxCell>
        <mxCell id="gzsq6Yt03Mv5ZVgsQ6RC-30" value="" style="edgeStyle=orthogonalEdgeStyle;endArrow=block;html=1;dashed=1;strokeColor=#0000FF;strokeWidth=2;endFill=0;" edge="1" parent="1" source="gzsq6Yt03Mv5ZVgsQ6RC-16" target="gzsq6Yt03Mv5ZVgsQ6RC-19">
          <mxGeometry width="50" height="50" relative="1" as="geometry">
            <mxPoint x="550" y="390" as="sourcePoint" />
            <mxPoint x="490" y="460" as="targetPoint" />
            <Array as="points">
              <mxPoint x="469" y="420" />
              <mxPoint x="469" y="430" />
            </Array>
          </mxGeometry>
        </mxCell>
        <mxCell id="gzsq6Yt03Mv5ZVgsQ6RC-32" value="" style="edgeStyle=orthogonalEdgeStyle;endArrow=block;html=1;dashed=1;strokeColor=#0000FF;strokeWidth=2;endFill=0;" edge="1" parent="1" source="gzsq6Yt03Mv5ZVgsQ6RC-4" target="gzsq6Yt03Mv5ZVgsQ6RC-19">
          <mxGeometry width="50" height="50" relative="1" as="geometry">
            <mxPoint x="407.5" y="405" as="sourcePoint" />
            <mxPoint x="530" y="370" as="targetPoint" />
            <Array as="points">
              <mxPoint x="470" y="310" />
              <mxPoint x="470" y="430" />
            </Array>
          </mxGeometry>
        </mxCell>
        <mxCell id="gzsq6Yt03Mv5ZVgsQ6RC-33" value="" style="group" vertex="1" connectable="0" parent="1">
          <mxGeometry x="510" y="580" width="80" height="75" as="geometry" />
        </mxCell>
        <mxCell id="gzsq6Yt03Mv5ZVgsQ6RC-34" value="" style="shape=mxgraph.bpmn.script_task;html=1;outlineConnect=0;" vertex="1" parent="gzsq6Yt03Mv5ZVgsQ6RC-33">
          <mxGeometry x="20" width="40" height="40" as="geometry" />
        </mxCell>
        <mxCell id="gzsq6Yt03Mv5ZVgsQ6RC-35" value="Analysis" style="text;html=1;strokeColor=none;fillColor=none;align=center;verticalAlign=middle;whiteSpace=wrap;rounded=0;" vertex="1" parent="gzsq6Yt03Mv5ZVgsQ6RC-33">
          <mxGeometry y="55" width="80" height="20" as="geometry" />
        </mxCell>
        <mxCell id="gzsq6Yt03Mv5ZVgsQ6RC-36" value="" style="edgeStyle=orthogonalEdgeStyle;endArrow=block;html=1;dashed=1;strokeColor=#0000FF;strokeWidth=2;endFill=0;" edge="1" parent="1" source="gzsq6Yt03Mv5ZVgsQ6RC-6" target="gzsq6Yt03Mv5ZVgsQ6RC-34">
          <mxGeometry width="50" height="50" relative="1" as="geometry">
            <mxPoint x="500" y="70" as="sourcePoint" />
            <mxPoint x="550" y="240" as="targetPoint" />
            <Array as="points">
              <mxPoint x="550" y="540" />
            </Array>
          </mxGeometry>
        </mxCell>
        <mxCell id="gzsq6Yt03Mv5ZVgsQ6RC-37" value="" style="edgeStyle=orthogonalEdgeStyle;endArrow=classic;html=1;dashed=1;" edge="1" parent="1" source="gzsq6Yt03Mv5ZVgsQ6RC-34" target="gzsq6Yt03Mv5ZVgsQ6RC-2">
          <mxGeometry width="50" height="50" relative="1" as="geometry">
            <mxPoint x="550" y="390" as="sourcePoint" />
            <mxPoint x="407.5" y="525" as="targetPoint" />
            <Array as="points">
              <mxPoint x="145" y="600" />
            </Array>
          </mxGeometry>
        </mxCell>
        <mxCell id="gzsq6Yt03Mv5ZVgsQ6RC-39" value="" style="edgeStyle=orthogonalEdgeStyle;endArrow=none;html=1;endFill=0;" edge="1" parent="1" target="gzsq6Yt03Mv5ZVgsQ6RC-34">
          <mxGeometry width="50" height="50" relative="1" as="geometry">
            <mxPoint x="630" y="230" as="sourcePoint" />
            <mxPoint x="550" y="410" as="targetPoint" />
            <Array as="points">
              <mxPoint x="600" y="230" />
              <mxPoint x="600" y="600" />
            </Array>
          </mxGeometry>
        </mxCell>
      </root>
    </mxGraphModel>
  </diagram>
  <diagram id="5b6NjDHPqx221teooDvQ" name="GDBContents">
    <mxGraphModel dx="1422" dy="831" grid="1" gridSize="10" guides="1" tooltips="1" connect="1" arrows="1" fold="1" page="1" pageScale="1" pageWidth="850" pageHeight="1100" math="0" shadow="0">
      <root>
        <mxCell id="yJTX_5fowlN7aJKwZSzn-0" />
        <mxCell id="yJTX_5fowlN7aJKwZSzn-1" parent="yJTX_5fowlN7aJKwZSzn-0" />
        <mxCell id="elD038r_92A3GgNFvKKa-0" value="PMT_{year}" style="shape=datastore;whiteSpace=wrap;html=1;" vertex="1" parent="yJTX_5fowlN7aJKwZSzn-1">
          <mxGeometry x="410" y="20" width="320" height="230" as="geometry" />
        </mxCell>
        <mxCell id="elD038r_92A3GgNFvKKa-2" value="&lt;div&gt;&lt;b&gt;Parcels:&lt;/b&gt;&lt;/div&gt;&lt;div&gt;- Socioeconomic_demographic (value)&lt;br&gt;&lt;/div&gt;&lt;div&gt;-Fiscal_impact&lt;/div&gt;&lt;div&gt;-Development_opportunity&lt;/div&gt;&lt;div&gt;- Access_and_travel_time&lt;/div&gt;&lt;div&gt;- Mode_share_and_trip_length&lt;/div&gt;&lt;div&gt;- Impervious_area&lt;br&gt;&lt;/div&gt;&lt;div&gt;- Energy_consumption&lt;/div&gt;" style="text;html=1;strokeColor=none;fillColor=none;align=left;verticalAlign=middle;whiteSpace=wrap;rounded=0;" vertex="1" parent="yJTX_5fowlN7aJKwZSzn-1">
          <mxGeometry x="330" y="500" width="250" height="140" as="geometry" />
        </mxCell>
        <mxCell id="elD038r_92A3GgNFvKKa-16" value="&lt;div&gt;&lt;b&gt;Basic_Features&lt;/b&gt;&lt;/div&gt;&lt;div&gt;&lt;br&gt;&lt;div&gt;- County Boundary&lt;/div&gt;&lt;div&gt;- Station Locations&lt;/div&gt;&lt;div&gt;- Corridor Lines&lt;/div&gt;&lt;div&gt;- Corridor Buffers&lt;/div&gt;&lt;div&gt;- Station Buffers&lt;/div&gt;- Urban Growth Boundary&lt;/div&gt;" style="shape=datastore;whiteSpace=wrap;html=1;" vertex="1" parent="yJTX_5fowlN7aJKwZSzn-1">
          <mxGeometry x="40" y="20" width="240" height="230" as="geometry" />
        </mxCell>
        <mxCell id="elD038r_92A3GgNFvKKa-17" value="&lt;div&gt;&lt;b&gt;Network:&lt;/b&gt;&lt;/div&gt;&lt;div&gt;- OSMNX_Walk (LTS)&lt;br&gt;&lt;/div&gt;&lt;div&gt;-OSMNX_Walk_ND*&lt;/div&gt;&lt;div&gt;-OSMNX_Walk_Junctions&lt;br&gt;&lt;/div&gt;&lt;div&gt;-OSMNX_Bike (LTS)&lt;br&gt;&lt;/div&gt;&lt;div&gt;-OSMNX_Bike_ND*&lt;/div&gt;&lt;div&gt;-OSMNX_Bike_Junctions&lt;/div&gt;&lt;div&gt;- SERPM_Base_Hwy_Unloaded...(centrality)&lt;/div&gt;&lt;div&gt;-SERPM_EC_Hwy_Unloaded...(centrality)&lt;/div&gt;&lt;div&gt;-SERPM_LRTP_Hwy_Unloaded...(centrality)&lt;/div&gt;&lt;div&gt;&lt;br&gt;&lt;/div&gt;" style="text;html=1;strokeColor=none;fillColor=none;align=left;verticalAlign=middle;whiteSpace=wrap;rounded=0;" vertex="1" parent="yJTX_5fowlN7aJKwZSzn-1">
          <mxGeometry x="330" y="330" width="250" height="200" as="geometry" />
        </mxCell>
        <mxCell id="elD038r_92A3GgNFvKKa-18" value="&lt;div&gt;&lt;b&gt;Transport:&lt;/b&gt;&lt;/div&gt;&lt;div&gt;-Transit_Boadings_alightings&lt;/div&gt;&lt;div&gt;- CitiBike_utilization&lt;/div&gt;&lt;div&gt;- Parking_spaces&lt;/div&gt;&lt;div&gt;- TAZ_regional_access_productivity&lt;/div&gt;" style="text;html=1;strokeColor=none;fillColor=none;align=left;verticalAlign=middle;whiteSpace=wrap;rounded=0;" vertex="1" parent="yJTX_5fowlN7aJKwZSzn-1">
          <mxGeometry x="330" y="700" width="250" height="100" as="geometry" />
        </mxCell>
        <mxCell id="elD038r_92A3GgNFvKKa-19" value="&lt;div&gt;&lt;b&gt;SafetySecurity&lt;/b&gt;&lt;/div&gt;&lt;div&gt;- Violent_crime_incidents&lt;/div&gt;&lt;div&gt;- Nonmotorized_crashes&lt;br&gt;&lt;/div&gt;" style="text;html=1;strokeColor=none;fillColor=none;align=left;verticalAlign=middle;whiteSpace=wrap;rounded=0;" vertex="1" parent="yJTX_5fowlN7aJKwZSzn-1">
          <mxGeometry x="330" y="630" width="250" height="80" as="geometry" />
        </mxCell>
        <mxCell id="elD038r_92A3GgNFvKKa-20" value="&lt;div&gt;&lt;i&gt;Tables:&lt;/i&gt;&lt;/div&gt;&lt;div&gt;&lt;i&gt;- every summary variable this year&lt;br&gt;&lt;/i&gt;&lt;/div&gt;&lt;div&gt;&lt;i&gt;- every summary variable previous 5 years&lt;/i&gt;&lt;/div&gt;&lt;div&gt;&lt;i&gt;- every summary variable modeled near term&lt;/i&gt;&lt;/div&gt;&lt;div&gt;&lt;i&gt;- every summary variable modeled long term&lt;br&gt;&lt;/i&gt;&lt;/div&gt;&lt;div&gt;&lt;i&gt;- region, corridor, station_area&lt;br&gt;&lt;/i&gt;&lt;/div&gt;" style="text;html=1;strokeColor=none;fillColor=none;align=left;verticalAlign=middle;whiteSpace=wrap;rounded=0;" vertex="1" parent="yJTX_5fowlN7aJKwZSzn-1">
          <mxGeometry x="580" y="270" width="260" height="130" as="geometry" />
        </mxCell>
        <mxCell id="elD038r_92A3GgNFvKKa-21" value="&lt;div&gt;&lt;b&gt;Buildings&lt;/b&gt;&lt;/div&gt;&lt;div&gt;- Building_footprints&lt;/div&gt;&lt;div&gt;- Building_permits&lt;br&gt;&lt;/div&gt;" style="text;html=1;strokeColor=none;fillColor=none;align=left;verticalAlign=middle;whiteSpace=wrap;rounded=0;" vertex="1" parent="yJTX_5fowlN7aJKwZSzn-1">
          <mxGeometry x="330" y="270" width="250" height="80" as="geometry" />
        </mxCell>
      </root>
    </mxGraphModel>
  </diagram>
</mxfile>
